<svg xmlns="http://www.w3.org/2000/svg" width="86.26" height="92.35" viewBox="0 0 86.26 92.35"><defs><style>.a{fill:#fff;stroke:#fff;}</style></defs><g transform="translate(0.5 0.5)"><path class="a" d="M86.832,23.539H85.309V22.017A7.621,7.621,0,0,0,77.7,14.4H76.174V12.881a7.621,7.621,0,0,0-7.612-7.612H16.8a7.622,7.622,0,0,0-7.613,7.612V70.736A7.622,7.622,0,0,0,16.8,78.349H18.32v1.522a7.621,7.621,0,0,0,7.612,7.613h1.523v1.523a7.621,7.621,0,0,0,7.612,7.612H86.832a7.622,7.622,0,0,0,7.613-7.612V31.152A7.622,7.622,0,0,0,86.832,23.539ZM18.32,22.017V75.3H16.8a4.567,4.567,0,0,1-4.567-4.567V12.881A4.567,4.567,0,0,1,16.8,8.314H68.562a4.568,4.568,0,0,1,4.567,4.567V14.4h-47.2A7.621,7.621,0,0,0,18.32,22.017Zm9.135,9.135V84.439H25.932a4.567,4.567,0,0,1-4.567-4.567V22.017a4.567,4.567,0,0,1,4.567-4.567H77.7a4.567,4.567,0,0,1,4.567,4.567v1.522h-47.2A7.622,7.622,0,0,0,27.454,31.152ZM91.4,89.007a4.567,4.567,0,0,1-4.567,4.567H35.067A4.568,4.568,0,0,1,30.5,89.007V38.764H91.4Zm0-53.288H30.5V31.152a4.567,4.567,0,0,1,4.567-4.567H86.832A4.567,4.567,0,0,1,91.4,31.152Z" transform="translate(-9.184 -5.269)"/><path class="a" d="M43.111,37.039a1.5,1.5,0,0,0-2.482.5,1.44,1.44,0,0,0,0,1.157,1.78,1.78,0,0,0,.32.5,1.582,1.582,0,0,0,.5.32,1.507,1.507,0,0,0,1.659-.32,1.763,1.763,0,0,0,.32-.5,1.428,1.428,0,0,0,0-1.157A1.558,1.558,0,0,0,43.111,37.039Z" transform="translate(-16.147 -12.238)"/><path class="a" d="M48.984,37.039a1.5,1.5,0,0,0-2.482.5,1.524,1.524,0,0,0-.121.579,1.282,1.282,0,0,0,.121.579,1.37,1.37,0,0,0,.823.822,1.507,1.507,0,0,0,1.659-.32,1.763,1.763,0,0,0,.32-.5,1.428,1.428,0,0,0,0-1.157A1.558,1.558,0,0,0,48.984,37.039Z" transform="translate(-17.453 -12.238)"/><path class="a" d="M54.857,37.039a1.592,1.592,0,0,0-2.161,0,1.558,1.558,0,0,0-.32.5,1.27,1.27,0,0,0-.122.579,1.522,1.522,0,1,0,2.923-.579A1.558,1.558,0,0,0,54.857,37.039Z" transform="translate(-18.758 -12.238)"/></g></svg>