<svg xmlns="http://www.w3.org/2000/svg" width="23.861" height="21.313" viewBox="0 0 23.861 21.313"><defs><style>.a{fill:#fff;}</style></defs><path class="a" d="M30.888,17.675H8.811a.892.892,0,0,0-.892.891V38.1a.889.889,0,0,0,.382.729v.141h.32a.889.889,0,0,0,.19.021H30.888a.89.89,0,0,0,.189-.021h.044v-.013a.891.891,0,0,0,.658-.857V18.567A.893.893,0,0,0,30.888,17.675ZM11.442,38.2h-2.7a.125.125,0,0,1-.061-.106V35.783h2.759Zm0-3.184H8.683v-2.51h2.759Zm0-3.273H8.683V29.1h2.759Zm0-3.414H8.683V25.466h2.759Zm0-3.63H8.683V21.9h2.759Zm6.432,13.5H12.207v-2.42h5.668V38.2Zm0-3.184H12.207v-2.51h5.668v2.51Zm0-3.273H12.207V29.1h5.668v2.649Zm0-3.414H12.207V25.466h5.668v2.866Zm0-3.63H12.207V21.9h5.668v2.8Zm0-3.566H12.207v-2.7h5.668v2.7Zm6.5,17.068H18.639v-2.42h5.732Zm0-3.184H18.639v-2.51h5.732Zm0-3.273H18.639V29.1h5.732Zm0-3.414H18.639V25.466h5.732Zm0-3.63H18.639V21.9h5.732Zm0-3.566H18.639v-2.7h5.732ZM31.015,38.1a.126.126,0,0,1-.061.106H25.136v-2.42h5.88Zm0-3.078h-5.88v-2.51h5.88Zm0-3.273h-5.88V29.1h5.88Zm0-3.414h-5.88V25.466h5.88Zm0-3.63h-5.88V21.9h5.88Zm0-3.566h-5.88v-2.7h5.753a.128.128,0,0,1,.127.127v2.569ZM17.307,31.148H12.72v-1.6h4.586v1.6Zm6.481.06H19.2v-1.6h4.586Zm6.641-.035H25.842v-1.6h4.586Z" transform="translate(-7.919 -17.675)"/></svg>