<svg xmlns="http://www.w3.org/2000/svg" width="90.464" height="80.806" viewBox="0 0 90.464 80.806"><defs><style>.a{fill:#fff;}</style></defs><path class="a" d="M95,17.675H11.3a3.383,3.383,0,0,0-3.38,3.379V95.1a3.369,3.369,0,0,0,1.448,2.765V98.4h1.211a3.373,3.373,0,0,0,.72.081H95a3.374,3.374,0,0,0,.718-.081h.166v-.051a3.377,3.377,0,0,0,2.5-3.248V21.055A3.384,3.384,0,0,0,95,17.675ZM21.278,95.5H11.048a.472.472,0,0,1-.232-.4V86.328H21.278Zm0-12.072H10.816V73.916H21.278Zm0-12.41H10.816V60.975H21.278Zm0-12.942H10.816V47.213H21.278Zm0-13.763H10.816V33.692H21.278ZM45.665,95.5H24.175V86.328h21.49V95.5Zm0-12.072H24.175V73.916h21.49v9.514Zm0-12.41H24.175V60.975h21.49V71.02Zm0-12.942H24.175V47.213h21.49V58.079Zm0-13.763H24.175V33.692h21.49V44.315Zm0-13.521H24.175V20.571h21.49V30.794ZM70.3,95.5H48.562V86.328H70.3Zm0-12.072H48.562V73.916H70.3Zm0-12.41H48.562V60.975H70.3Zm0-12.942H48.562V47.213H70.3Zm0-13.763H48.562V33.692H70.3Zm0-13.521H48.562V20.571H70.3ZM95.486,95.1a.477.477,0,0,1-.232.4H73.193V86.328H95.486Zm0-11.671H73.193V73.916H95.486Zm0-12.41H73.193V60.975H95.486Zm0-12.942H73.193V47.213H95.486Zm0-13.763H73.193V33.692H95.486Zm0-13.521H73.193V20.571H95a.485.485,0,0,1,.483.483v9.74ZM43.511,68.756H26.122V62.709H43.51v6.047Zm24.572.229H50.694V62.937H68.083Zm25.178-.133H75.871V62.8H93.26Z" transform="translate(-7.919 -17.675)"/></svg>