<svg xmlns="http://www.w3.org/2000/svg" width="101.354" height="83.663" viewBox="0 0 101.354 83.663"><defs><style>.a{fill:#fff;}</style></defs><g transform="translate(-910 -256)"><g transform="translate(910 256)"><path class="a" d="M207.014,66.427a18.322,18.322,0,0,1-5.426-10.437,19.765,19.765,0,0,1-18.973-1.7A19.048,19.048,0,0,0,168.323,72.7V88.126l.039.238,1.062.335a89.19,89.19,0,0,0,21.434,4.029V88.069A22.62,22.62,0,0,1,207.014,66.427Z" transform="translate(-168.323 -24.557)"/><path class="a" d="M229.442,69.333a17.9,17.9,0,0,1-19.408,0,19.053,19.053,0,0,0-15.627,18.712v15.425l.039.242,1.063.332a86.61,86.61,0,0,0,25.878,4.173c13.988,0,22.1-3.988,22.6-4.242l.993-.5h.106V88.047A19.046,19.046,0,0,0,229.442,69.333Z" transform="translate(-168.323 -24.557)"/><path class="a" d="M255.384,54.289A19.75,19.75,0,0,1,237.8,56.534a18.326,18.326,0,0,1-5.329,9.893A22.616,22.616,0,0,1,248.63,88.069v4.754c12.358-.453,19.479-3.955,19.948-4.191l.993-.5h.106V72.7A19.047,19.047,0,0,0,255.384,54.289Z" transform="translate(-168.323 -24.557)"/><path class="a" d="M238,52.489a14.858,14.858,0,1,0-7.757-14.159A18.415,18.415,0,0,1,238,52.489Z" transform="translate(-168.323 -24.557)"/><path class="a" d="M194.088,54.243A14.762,14.762,0,0,0,201.8,51.37a18.4,18.4,0,0,1,6.028-12.213c-.006-.279,0-.556-.02-.836a14.864,14.864,0,1,0-13.721,15.922Z" transform="translate(-168.323 -24.557)"/></g><path class="a" d="M204.932,54.153a14.479,14.479,0,1,0-.052-1.017C204.88,53.479,204.909,53.816,204.932,54.153Z" transform="translate(741.677 231.443)"/></g></svg>