<svg xmlns="http://www.w3.org/2000/svg" width="47.455" height="38.755" viewBox="0 0 47.455 38.755"><defs><style>.a{fill:#fff;}</style></defs><path class="a" d="M36.592,58.509a.447.447,0,0,0-.431.33L27.1,81.445v.791c0,.58-.037.791.447.791h35.4a2.008,2.008,0,0,0,1.938-1.434L72.973,59.3v-.791Z" transform="translate(-25.519 -44.273)"/><path class="a" d="M34.5,47.154h32.64V42.2a2.163,2.163,0,0,0-2.161-2.161H45.4L41.45,34.5H26.594a2.164,2.164,0,0,0-2.161,2.161V69.717l8.132-21.131A2.007,2.007,0,0,1,34.5,47.154Z" transform="translate(-24.433 -34.499)"/></svg>