<svg xmlns="http://www.w3.org/2000/svg" width="79.682" height="88.909" viewBox="0 0 79.682 88.909"><defs><style>.a{fill:#fff;}</style></defs><path class="a" d="M82.693,56.363A3.472,3.472,0,0,0,79.22,52.89H43.448a3.473,3.473,0,1,0,0,6.946H79.22A3.473,3.473,0,0,0,82.693,56.363Z" transform="translate(-26.102 -18.16)"/><path class="a" d="M43.448,68.761a3.473,3.473,0,1,0,0,6.946H65.173a3.473,3.473,0,1,0,0-6.946Z" transform="translate(-26.102 -20.139)"/><path class="a" d="M49.633,95.174H38.017a6.954,6.954,0,0,1-6.946-6.945V27.1a6.954,6.954,0,0,1,6.946-6.945h42.7A6.954,6.954,0,0,1,87.662,27.1V48.462a3.473,3.473,0,1,0,6.946,0V27.1A13.908,13.908,0,0,0,80.716,13.211h-42.7A13.908,13.908,0,0,0,24.125,27.1V88.228A13.908,13.908,0,0,0,38.017,102.12H49.633a3.473,3.473,0,0,0,0-6.946Z" transform="translate(-24.125 -13.211)"/><path class="a" d="M106.127,70.227a10.429,10.429,0,0,0-14.732,0L72.327,89.249a3.485,3.485,0,0,0-.87,1.449L67.3,104.369a3.473,3.473,0,0,0,4.25,4.356l14.018-3.883a3.484,3.484,0,0,0,1.526-.889l19.027-18.992A10.429,10.429,0,0,0,106.127,70.227ZM82.839,98.392l-7.053,1.953L77.85,93.55,90.716,80.713l4.913,4.913Zm18.379-18.345-.673.672-4.912-4.912.671-.67a3.473,3.473,0,0,1,4.914,4.909Z" transform="translate(-29.492 -19.942)"/><path class="a" d="M79.22,37.018H43.448a3.473,3.473,0,1,0,0,6.946H79.22a3.473,3.473,0,1,0,0-6.946Z" transform="translate(-26.102 -16.18)"/></svg>