<svg xmlns="http://www.w3.org/2000/svg" width="30" height="30" viewBox="0 0 30 30"><defs><style>.a{fill:#d6d3d3;}.b{fill:#ff640a;}.c{fill:#fff;}</style></defs><g transform="translate(-141 -434)"><circle class="a" cx="15" cy="15" r="15" transform="translate(141 434)"/><g transform="translate(148.106 442.354)"><path class="b" d="M108.466,120.69l-8.938-1.568v-11.2l8.938-1.568Z" transform="translate(-99.528 -106.357)"/><rect class="b" width="5.614" height="11.196" transform="translate(9.373 1.568)"/></g><g transform="translate(150.969 444.831)"><path class="c" d="M159.326,215.673v-4.049h1.717a1.351,1.351,0,0,1,1.289,1.346,1.3,1.3,0,0,1-1.26,1.346h-.958v1.357Zm.787-2.047h.912c.33,0,.508-.308.508-.656a.59.59,0,0,0-.542-.656h-.878v1.312Z" transform="translate(-159.326 -209.059)"/><path class="c" d="M301.558,161.2a1.583,1.583,0,1,0,1.582,1.608h-1.582Z" transform="translate(-293.239 -161.054)"/><path class="c" d="M339.9,158.066v1.422h1.335q0-.035,0-.07A1.352,1.352,0,0,0,339.9,158.066Z" transform="translate(-331.254 -158.066)"/><rect class="c" width="3.834" height="0.642" transform="translate(6.509 4.048)"/><rect class="c" width="3.834" height="0.642" transform="translate(6.509 5.174)"/><rect class="c" width="3.834" height="0.642" transform="translate(6.509 6.299)"/><rect class="c" width="3.834" height="0.642" transform="translate(6.509 7.424)"/></g></g></svg>