<svg xmlns="http://www.w3.org/2000/svg" width="30" height="30" viewBox="0 0 30 30"><defs><style>.a{fill:#d6d3d3;}.b{fill:#006941;}.c{fill:#fff;}</style></defs><g transform="translate(-1 -62)"><circle class="a" cx="15" cy="15" r="15" transform="translate(1 62)"/><g transform="translate(-140 -372)"><g transform="translate(149.299 442.741)"><path class="b" d="M98.9,117.34l8.113,1.423v-13.01L98.9,107.177Z" transform="translate(-98.898 -105.754)"/><rect class="b" width="5.095" height="10.163" transform="translate(8.508 1.423)"/></g><g transform="translate(151.445 445.196)"><rect class="c" width="1.281" height="1.395" transform="translate(6.363 0)"/><rect class="c" width="1.281" height="1.395" transform="translate(6.363 2.235)"/><rect class="c" width="1.281" height="1.395" transform="translate(6.363 4.47)"/><rect class="c" width="1.281" height="1.395" transform="translate(6.363 6.705)"/><rect class="c" width="2.235" height="1.395" transform="translate(8.298 0)"/><rect class="c" width="2.235" height="1.395" transform="translate(8.298 2.235)"/><rect class="c" width="2.235" height="1.395" transform="translate(8.298 4.47)"/><rect class="c" width="2.235" height="1.395" transform="translate(8.298 6.705)"/><path class="c" d="M151.817,207.943h-.926l-.7,1.243-.7-1.243h-.926l1.163,2.065-1.277,2.267h.926l.814-1.445.814,1.445h.926l-1.277-2.267Z" transform="translate(-148.451 -205.974)"/></g></g></g></svg>