<svg xmlns="http://www.w3.org/2000/svg" width="30" height="30" viewBox="0 0 30 30"><defs><style>.a{fill:#d6d3d3;}.b{fill:#1e2d64;}.c{fill:#fff;}</style></defs><g transform="translate(-139 -409)"><circle class="a" cx="15" cy="15" r="15" transform="translate(139 409)"/><g transform="translate(53.283 26.276)"><g transform="translate(94.344 391.802)"><path class="b" d="M100.5,118.576l7.9,1.387V107.29l-7.9,1.387Z" transform="translate(-100.503 -107.29)"/><rect class="b" width="4.963" height="9.9" transform="translate(8.288 1.386)"/></g><g transform="translate(96.045 394.323)"><path class="c" d="M143.684,216.636l-.608-2.433h-.715l-.666,2.487-.523-2.5h-.743l1.059,3.563h.582l.617-2.531.617,2.531h.582l1.178-3.563h-.753Z" transform="translate(-140.429 -212.159)"/><rect class="c" width="4.285" height="0.963" transform="translate(6.586 0)"/><rect class="c" width="4.285" height="0.963" transform="translate(6.586 1.667)"/><rect class="c" width="4.285" height="0.963" transform="translate(6.586 3.334)"/><rect class="c" width="4.285" height="0.963" transform="translate(6.586 5.001)"/><rect class="c" width="4.285" height="0.963" transform="translate(6.586 6.668)"/></g></g></g></svg>