<svg xmlns="http://www.w3.org/2000/svg" width="30" height="30" viewBox="0 0 30 30"><defs><style>.a{fill:#d6d3d3;}</style></defs><g transform="translate(-141 -434)"><path class="a" d="M15,0A15,15,0,1,1,0,15,15,15,0,0,1,15,0Z" transform="translate(141 434)"/><g transform="translate(89.726 441.792)"><path d="M69,0h-6.8a.829.829,0,0,0-.828.828V12.674a.829.829,0,0,0,.828.828h8.324a.829.829,0,0,0,.828-.828V2.56Zm.2,1.239,1.033,1.122H69.2Zm1.466,11.435a.133.133,0,0,1-.133.133H62.209a.133.133,0,0,1-.133-.133V.828A.132.132,0,0,1,62.209.7h6.3V2.709a.348.348,0,0,0,.348.347h1.813ZM63.3,4.559h5.9a.26.26,0,0,1,0,.521H63.3a.26.26,0,0,1,0-.521ZM69.468,6.57a.261.261,0,0,1-.26.26H63.3a.26.26,0,0,1,0-.521h5.9A.261.261,0,0,1,69.468,6.57Zm0,1.693a.261.261,0,0,1-.26.26H63.3A.26.26,0,0,1,63.3,8h5.9A.261.261,0,0,1,69.468,8.263Zm0,1.722a.261.261,0,0,1-.26.26H63.3a.26.26,0,0,1,0-.521h5.9A.261.261,0,0,1,69.468,9.985Z"/></g></g></svg>