<svg xmlns="http://www.w3.org/2000/svg" width="30" height="30" viewBox="0 0 30 30"><defs><style>.a{fill:#3d97ff;}.b{fill:#fff;}</style></defs><g transform="translate(-1 -41)"><path class="a" d="M15,0A15,15,0,1,1,0,15,15,15,0,0,1,15,0Z" transform="translate(1 41)"/><g transform="translate(3.957 41.832)"><path class="b" d="M14.89,19.415a.919.919,0,0,1-1.386.792.287.287,0,0,1-.052-.039L9.528,16.515a.327.327,0,0,0-.142-.032H6.92a.921.921,0,0,1-.92-.92V11.772a.921.921,0,0,1,.92-.92H9.387a.327.327,0,0,0,.142-.032l3.924-3.653a.3.3,0,0,1,.052-.039.919.919,0,0,1,1.386.792Z"/><path class="b" d="M38.3,25.63a.3.3,0,0,1-.21-.506,3.27,3.27,0,0,0,0-4.619.3.3,0,0,1,.419-.419,3.863,3.863,0,0,1,0,5.457A.3.3,0,0,1,38.3,25.63Z" transform="translate(-22.517 -9.147)"/><path class="b" d="M42.047,24.63a.3.3,0,0,1-.419-.419,4.747,4.747,0,0,0,0-6.706.3.3,0,0,1,.419-.419A5.34,5.34,0,0,1,42.047,24.63Z" transform="translate(-25.008 -7.036)"/></g></g></svg>