<svg xmlns="http://www.w3.org/2000/svg" width="30" height="30" viewBox="0 0 30 30"><defs><style>.a{fill:#d6d3d3;}.b{fill:#0e4f6e;}</style></defs><g transform="translate(-141 -434)"><path class="a" d="M15,0A15,15,0,1,1,0,15,15,15,0,0,1,15,0Z" transform="translate(141 434)"/><g transform="translate(2053.291 641.444)"><path class="b" d="M-1893.37-140.6a5.542,5.542,0,0,1-3.775,1.478,5.542,5.542,0,0,1-3.775-1.478,7.972,7.972,0,0,0-3.747,2.077,8.644,8.644,0,0,0,7.661,3.852,8.517,8.517,0,0,0,7.4-3.8A6.987,6.987,0,0,0-1893.37-140.6Z" transform="translate(0 -50.254)"/><circle class="b" cx="4.033" cy="4.033" r="4.033" transform="translate(-1901.179 -198.968)"/></g></g></svg>