<svg xmlns="http://www.w3.org/2000/svg" width="13.466" height="11.872" viewBox="0 0 13.466 11.872"><defs><style>.a{stroke:#0c0c0c;stroke-width:0.5px;}</style></defs><g transform="translate(-416.426 -282.617)"><path class="a" d="M2.681,3.444A1.7,1.7,0,0,0,4.342,1.968h9.384a.246.246,0,0,0,0-.492H4.342A1.7,1.7,0,0,0,2.681,0,1.7,1.7,0,0,0,1,1.722,1.7,1.7,0,0,0,2.681,3.444Zm0-2.952a1.217,1.217,0,0,1,1.2,1.23,1.217,1.217,0,0,1-1.2,1.23,1.217,1.217,0,0,1-1.2-1.23A1.217,1.217,0,0,1,2.681.492Z" transform="translate(415.676 282.867)"/><path class="a" d="M12.285,42a1.7,1.7,0,0,0-1.662,1.476H1.24a.246.246,0,0,0,0,.492h9.384A1.684,1.684,0,1,0,12.285,42Zm0,2.952a1.23,1.23,0,1,1,1.2-1.23A1.217,1.217,0,0,1,12.285,44.952Z" transform="translate(415.676 248.794)"/><path class="a" d="M13.726,22.164H9.252a1.726,1.726,0,0,0-3.439,0H1.24a.246.246,0,0,0,0,.492H5.828a1.722,1.722,0,0,0,3.408,0h4.489a.246.246,0,0,0,0-.492ZM7.533,23.64a1.281,1.281,0,1,1,1.25-1.281A1.267,1.267,0,0,1,7.533,23.64Z" transform="translate(415.676 266.155)"/></g></svg>