<svg xmlns="http://www.w3.org/2000/svg" width="18.589" height="7.727" viewBox="0 0 18.589 7.727"><defs><style>.a{fill:#fff;}</style></defs><g transform="translate(-835 -214)"><path class="a" d="M9.295,7.727A13.941,13.941,0,0,1,2.722,5.862,16.436,16.436,0,0,1,0,4L.005,3.99A16.744,16.744,0,0,1,2.723,2,13.268,13.268,0,0,1,9.295,0a13.267,13.267,0,0,1,6.572,2,16.5,16.5,0,0,1,2.722,2L18.583,4a16.777,16.777,0,0,1-2.716,1.859A13.939,13.939,0,0,1,9.295,7.727ZM9.272.773a3.09,3.09,0,1,0,3.09,3.091A3.094,3.094,0,0,0,9.272.773Z" transform="translate(835 214)"/><circle class="a" cx="2" cy="2" r="2" transform="translate(842.265 215.863)"/></g></svg>