<svg xmlns="http://www.w3.org/2000/svg" xmlns:xlink="http://www.w3.org/1999/xlink" width="22.908" height="20.214" viewBox="0 0 22.908 20.214"><defs><style>.a{fill:none;}.b{clip-path:url(#a);}.c{fill:#3d97ff;stroke:#3d97ff;}</style><clipPath id="a"><rect class="a" width="22.908" height="20.214"/></clipPath></defs><g class="b" transform="translate(0 0)"><path class="c" d="M3.84,5.819A2.866,2.866,0,0,0,6.647,3.325H22.5a.416.416,0,0,0,0-.831H6.647A2.866,2.866,0,0,0,3.84,0,2.879,2.879,0,0,0,1,2.91,2.879,2.879,0,0,0,3.84,5.819Zm0-4.988A2.056,2.056,0,0,1,5.868,2.91,2.056,2.056,0,0,1,3.84,4.988,2.056,2.056,0,0,1,1.811,2.91,2.056,2.056,0,0,1,3.84.831Z" transform="translate(-0.5 0.5)"/><path class="c" d="M20.068,42a2.866,2.866,0,0,0-2.807,2.494H1.406a.416.416,0,0,0,0,.831H17.261A2.845,2.845,0,1,0,20.068,42Zm0,4.988A2.079,2.079,0,1,1,22.1,44.91,2.056,2.056,0,0,1,20.068,46.988Z" transform="translate(-0.5 -28.106)"/><path class="c" d="M22.5,23.252H14.943a2.916,2.916,0,0,0-5.811,0H1.406a.416.416,0,0,0,0,.831H9.158a2.909,2.909,0,0,0,5.759,0H22.5a.416.416,0,0,0,0-.831ZM12.038,25.746a2.165,2.165,0,1,1,2.113-2.164A2.141,2.141,0,0,1,12.038,25.746Z" transform="translate(-0.5 -13.541)"/></g></svg>