<svg xmlns="http://www.w3.org/2000/svg" width="60" height="60" viewBox="0 0 60 60"><defs><style>.a{fill:#d6d3d3;}.b{fill:#0e4f6e;}</style></defs><g transform="translate(-141 -434)"><path class="a" d="M30,0A30,30,0,1,1,0,30,30,30,0,0,1,30,0Z" transform="translate(141 434)"/><g transform="translate(156.245 450.953)"><path class="b" d="M-1882.073-140.6a11.084,11.084,0,0,1-7.551,2.956,11.085,11.085,0,0,1-7.55-2.956,15.943,15.943,0,0,0-7.494,4.154c3.06,5.113,8.93,7.7,15.322,7.7,6.23,0,11.7-2.7,14.8-7.595C-1875.939-138.169-1878.636-139.684-1882.073-140.6Z" transform="translate(1904.667 156.832)"/><circle class="b" cx="8.067" cy="8.067" r="8.067" transform="translate(6.978 0)"/></g></g></svg>