<svg xmlns="http://www.w3.org/2000/svg" width="10.619" height="8.973" viewBox="0 0 10.619 8.973"><defs><style>.a{fill:#696969;}</style></defs><g transform="translate(0 0)"><path class="a" d="M253.1,438.536h-1.544a.209.209,0,0,0-.139.045.143.143,0,0,0-.054.115v.961a.143.143,0,0,0,.054.115.21.21,0,0,0,.139.045H253.1a.21.21,0,0,0,.139-.045.143.143,0,0,0,.054-.115V438.7a.142.142,0,0,0-.054-.115A.209.209,0,0,0,253.1,438.536Z" transform="translate(-246.147 -430.845)"/><path class="a" d="M8.514,7.05H7.356V.16A.143.143,0,0,0,7.3.045.21.21,0,0,0,7.163,0H6.005a.21.21,0,0,0-.139.045A.143.143,0,0,0,5.812.16V7.05H4.655a.182.182,0,0,0-.181.1.135.135,0,0,0,.042.175l1.93,1.6a.244.244,0,0,0,.139.045.226.226,0,0,0,.139-.045l1.924-1.6a.173.173,0,0,0,.06-.12.144.144,0,0,0-.054-.115A.21.21,0,0,0,8.514,7.05Z" transform="translate(-4.457)"/><path class="a" d="M254.254,292.362h-2.7a.21.21,0,0,0-.139.045.143.143,0,0,0-.054.115v.961a.143.143,0,0,0,.054.115.21.21,0,0,0,.139.045h2.7a.21.21,0,0,0,.139-.045.143.143,0,0,0,.054-.115v-.961a.143.143,0,0,0-.054-.115A.21.21,0,0,0,254.254,292.362Z" transform="translate(-246.144 -287.235)"/><path class="a" d="M256.711.045A.211.211,0,0,0,256.572,0h-5.017a.21.21,0,0,0-.139.045.143.143,0,0,0-.054.115v.961a.143.143,0,0,0,.054.115.21.21,0,0,0,.139.045h5.017a.21.21,0,0,0,.139-.045.143.143,0,0,0,.054-.115V.16A.143.143,0,0,0,256.711.045Z" transform="translate(-246.147)"/><path class="a" d="M255.412,146.181h-3.86a.21.21,0,0,0-.139.045.143.143,0,0,0-.054.115v.961a.143.143,0,0,0,.054.115.21.21,0,0,0,.139.045h3.86a.21.21,0,0,0,.139-.045.143.143,0,0,0,.054-.115v-.961a.143.143,0,0,0-.054-.115A.211.211,0,0,0,255.412,146.181Z" transform="translate(-246.144 -143.617)"/></g></svg>