<svg id="Component_7" data-name="Component 7" xmlns="http://www.w3.org/2000/svg" width="10.653" height="9.039" viewBox="0 0 10.653 9.039">
  <path id="Path_420" data-name="Path 420" d="M253.1,438.536h-1.549a.209.209,0,0,0-.139.045.144.144,0,0,0-.054.116v.968a.144.144,0,0,0,.054.116.21.21,0,0,0,.139.045H253.1a.21.21,0,0,0,.139-.045.144.144,0,0,0,.054-.116V438.7a.144.144,0,0,0-.054-.116A.209.209,0,0,0,253.1,438.536Z" transform="translate(-246.13 -430.788)" fill="#3d97ff"/>
  <path id="Path_421" data-name="Path 421" d="M8.527,7.1H7.366V.161A.144.144,0,0,0,7.311.045.21.21,0,0,0,7.172,0H6.01a.21.21,0,0,0-.139.045.145.145,0,0,0-.054.116V7.1H4.655a.182.182,0,0,0-.181.1.136.136,0,0,0,.042.177L6.452,8.994a.244.244,0,0,0,.139.045.226.226,0,0,0,.139-.045l1.93-1.609a.174.174,0,0,0,.061-.121.145.145,0,0,0-.054-.116A.211.211,0,0,0,8.527,7.1Z" transform="translate(-4.457 0)" fill="#3d97ff"/>
  <path id="Path_422" data-name="Path 422" d="M254.263,292.362h-2.711a.21.21,0,0,0-.139.045.144.144,0,0,0-.054.116v.969a.144.144,0,0,0,.054.116.21.21,0,0,0,.139.045h2.711a.21.21,0,0,0,.139-.045.144.144,0,0,0,.055-.116v-.969a.144.144,0,0,0-.055-.116A.21.21,0,0,0,254.263,292.362Z" transform="translate(-246.127 -287.196)" fill="#3d97ff"/>
  <path id="Path_423" data-name="Path 423" d="M256.729.045A.211.211,0,0,0,256.589,0h-5.034a.21.21,0,0,0-.139.045.145.145,0,0,0-.054.116V1.13a.144.144,0,0,0,.054.116.21.21,0,0,0,.139.045h5.034a.21.21,0,0,0,.139-.045.144.144,0,0,0,.054-.116V.161A.144.144,0,0,0,256.729.045Z" transform="translate(-246.13 0)" fill="#3d97ff"/>
  <path id="Path_424" data-name="Path 424" d="M255.425,146.181h-3.872a.21.21,0,0,0-.139.045.145.145,0,0,0-.054.116v.968a.144.144,0,0,0,.054.116.21.21,0,0,0,.139.045h3.872a.21.21,0,0,0,.139-.045.144.144,0,0,0,.054-.116v-.968a.144.144,0,0,0-.054-.116A.211.211,0,0,0,255.425,146.181Z" transform="translate(-246.127 -143.598)" fill="#3d97ff"/>
</svg>
