<svg xmlns="http://www.w3.org/2000/svg" width="14.751" height="14.751" viewBox="0 0 14.751 14.751"><defs><style>.a{fill:#fff;opacity:0.4;}</style></defs><path class="a" d="M20.14,5a1.609,1.609,0,0,0-1.414,2.376l-2.636,2.636a2.131,2.131,0,0,0-2.627,0L11.405,7.954a1.058,1.058,0,0,0,.152-.541,1.073,1.073,0,1,0-1.073,1.073,1.058,1.058,0,0,0,.542-.152l2.057,2.057a2.132,2.132,0,0,0,0,2.627l-3.4,3.4a1.593,1.593,0,1,0,.335.423L13.462,13.4a2.134,2.134,0,0,0,1.046.434v2.725a1.609,1.609,0,1,0,.536,0V13.831A2.134,2.134,0,0,0,16.09,13.4l2.057,2.057a1.058,1.058,0,0,0-.152.542,1.073,1.073,0,1,0,1.073-1.073,1.059,1.059,0,0,0-.542.152l-2.057-2.057a2.132,2.132,0,0,0,0-2.627L19.061,7.8A1.608,1.608,0,1,0,20.14,5Z" transform="translate(-6.998 -4.999)"/></svg>