<svg xmlns="http://www.w3.org/2000/svg" width="15.557" height="22.47" viewBox="0 0 15.557 22.47"><defs><style>.a{fill:#a4b7ce;}</style></defs><g transform="translate(-73.087)"><g transform="translate(73.087)"><path class="a" d="M150.5,15.556a4.333,4.333,0,0,0,4.321-4.321V4.321a4.16,4.16,0,0,0-1.269-3.052,4.3,4.3,0,0,0-6.1,0,4.161,4.161,0,0,0-1.269,3.052v6.914a4.333,4.333,0,0,0,4.321,4.321Z" transform="translate(-142.722)"/><path class="a" d="M88.387,182.981a.864.864,0,0,0-1.472.608v1.729a6.05,6.05,0,0,1-12.1,0v-1.729a.864.864,0,0,0-1.729,0v1.729A7.777,7.777,0,0,0,80,193.041v1.783H76.544a.864.864,0,0,0,0,1.729h8.642a.864.864,0,0,0,0-1.729H81.73v-1.783a7.778,7.778,0,0,0,6.914-7.724v-1.729A.83.83,0,0,0,88.387,182.981Z" transform="translate(-73.087 -174.082)"/></g></g></svg>