<svg xmlns="http://www.w3.org/2000/svg" xmlns:xlink="http://www.w3.org/1999/xlink" width="26" height="20.8" viewBox="0 0 26 20.8"><defs><style>.a{fill:none;}.b{clip-path:url(#a);}.c{fill:#3d97ff;}</style><clipPath id="a"><rect class="a" width="26" height="20.8"/></clipPath></defs><g class="b"><path class="c" d="M13,17.8a3.9,3.9,0,1,0,3.9,3.9A3.9,3.9,0,0,0,13,17.8Zm10.4-3.9H20.28a1.158,1.158,0,0,1-1.027-.74l-.807-2.42A1.159,1.159,0,0,0,17.42,10H8.58a1.158,1.158,0,0,0-1.027.74l-.807,2.42a1.159,1.159,0,0,1-1.027.74H2.6A2.608,2.608,0,0,0,0,16.5V28.2a2.608,2.608,0,0,0,2.6,2.6H23.4A2.608,2.608,0,0,0,26,28.2V16.5A2.608,2.608,0,0,0,23.4,13.9ZM13,28.2a6.5,6.5,0,1,1,6.5-6.5A6.5,6.5,0,0,1,13,28.2Zm9.49-9.882a.91.91,0,1,1,.91-.91A.91.91,0,0,1,22.49,18.318Z" transform="translate(0 -10)"/></g></svg>