<svg xmlns="http://www.w3.org/2000/svg" width="9.434" height="16.192" viewBox="0 0 9.434 16.192"><defs><style>.a{fill:#fff;}</style></defs><g transform="translate(-593 -239.95)"><g transform="translate(593 239.95)"><path class="a" d="M46.111,43.261l-2.94-8.168v-.436a.977.977,0,1,0-1,0v.436l-2.94,8.168a.527.527,0,0,0,.014.393.5.5,0,0,0,.925-.034l.217-.6L42.17,44v.915a.5.5,0,1,0,1,0V44l1.784-.984.217.6a.5.5,0,0,0,.621.311.506.506,0,0,0,.3-.277A.527.527,0,0,0,46.111,43.261Zm-3.941-1.87v1.44l-1.433-.79.463-1.287Zm0-2.616v1.394l-.614-.4.415-1.152Zm1,4.056v-1.44l.97-.636.463,1.286Zm0-2.662V38.775l.2-.161.415,1.153Z" transform="translate(-37.953 -29.239)"/><path class="a" d="M32.361,14.629a.345.345,0,1,0,.328-.608,4.027,4.027,0,1,1,3.809,0,.345.345,0,1,0,.328.608,4.717,4.717,0,1,0-4.465,0Z" transform="translate(-29.876 -5.758)"/><path class="a" d="M47.8,24.2a.345.345,0,1,0,.4.564,2.876,2.876,0,1,0-3.315,0,.345.345,0,1,0,.4-.564,2.186,2.186,0,1,1,2.518,0Z" transform="translate(-41.819 -17.701)"/></g></g></svg>