<svg xmlns="http://www.w3.org/2000/svg" width="13.832" height="12.355" viewBox="0 0 13.832 12.355"><defs><style>.a{fill:#fff;}</style></defs><path class="a" d="M21.234,17.675H8.436a.517.517,0,0,0-.517.517V29.513a.515.515,0,0,0,.221.423v.082h.185a.516.516,0,0,0,.11.012h12.8a.516.516,0,0,0,.11-.012h.025V30.01a.516.516,0,0,0,.382-.5V18.192A.517.517,0,0,0,21.234,17.675ZM9.961,29.575H8.4a.072.072,0,0,1-.035-.061V28.172h1.6Zm0-1.846h-1.6V26.274h1.6Zm0-1.9h-1.6V24.3h1.6Zm0-1.979h-1.6V22.191h1.6Zm0-2.1h-1.6V20.124h1.6Zm3.729,7.827H10.4v-1.4H13.69v1.4Zm0-1.846H10.4V26.274H13.69v1.455Zm0-1.9H10.4V24.3H13.69v1.536Zm0-1.979H10.4V22.191H13.69v1.661Zm0-2.1H10.4V20.124H13.69v1.624Zm0-2.067H10.4V18.118H13.69v1.563Zm3.766,9.894H14.133v-1.4h3.323Zm0-1.846H14.133V26.274h3.323Zm0-1.9H14.133V24.3h3.323Zm0-1.979H14.133V22.191h3.323Zm0-2.1H14.133V20.124h3.323Zm0-2.067H14.133V18.118h3.323Zm3.852,9.833a.073.073,0,0,1-.035.061H17.9v-1.4h3.409Zm0-1.784H17.9V26.274h3.409Zm0-1.9H17.9V24.3h3.409Zm0-1.979H17.9V22.191h3.409Zm0-2.1H17.9V20.124h3.409Zm0-2.067H17.9V18.118h3.335a.074.074,0,0,1,.074.074v1.489Zm-7.947,5.8H10.7v-.925h2.659v.925Zm3.757.035H14.459V24.6h2.659Zm3.85-.02H18.309v-.925h2.659Z" transform="translate(-7.919 -17.675)"/></svg>