<svg xmlns="http://www.w3.org/2000/svg" width="9.05" height="12.291" viewBox="0 0 9.05 12.291"><defs><style>.a{fill:#fff;}</style></defs><g transform="translate(614.083 205.659)"><path class="a" d="M-610.558-205.659a4.53,4.53,0,0,0-4.525,4.525,4.414,4.414,0,0,0,.4,1.847,28.528,28.528,0,0,0,3.938,5.832.252.252,0,0,0,.191.087.251.251,0,0,0,.191-.087,28.542,28.542,0,0,0,3.939-5.832,4.414,4.414,0,0,0,.4-1.847A4.531,4.531,0,0,0-610.558-205.659Zm0,6.876a2.353,2.353,0,0,1-2.351-2.351,2.353,2.353,0,0,1,2.351-2.351,2.353,2.353,0,0,1,2.35,2.351A2.353,2.353,0,0,1-610.558-198.783Z" transform="translate(1)"/></g></svg>