<svg xmlns="http://www.w3.org/2000/svg" width="13" height="15" viewBox="0 0 13 15"><defs><style>.a{fill:#fff;}</style></defs><g transform="translate(-4)"><ellipse class="a" cx="0.5" cy="1" rx="0.5" ry="1" transform="translate(7.133 12)"/><path class="a" d="M12.5,3V1.1A1.1,1.1,0,0,0,11.4,0H5.1A1.1,1.1,0,0,0,4,1.1V13.9A1.1,1.1,0,0,0,5.1,15h6.3a1.1,1.1,0,0,0,1.1-1.1V8.25H17V3ZM9,.75h.25a.25.25,0,1,1,0,.5H9a.25.25,0,1,1,0-.5ZM7.25.75h1a.25.25,0,1,1,0,.5h-1a.25.25,0,1,1,0-.5Zm1,13.5a1,1,0,1,1,1-1A1,1,0,0,1,8.25,14.25ZM12,11.5H4.5V2H12V3H7.5V8.25h1V10l2.333-1.75H12ZM12,5a.25.25,0,0,1-.25.25H9.25a.25.25,0,0,1,0-.5h2.5A.25.25,0,0,1,12,5Zm3.25,1.5h-6a.25.25,0,0,1,0-.5h6a.25.25,0,0,1,0,.5Z"/></g></svg>