<svg id="Component_8" data-name="Component 8" xmlns="http://www.w3.org/2000/svg" width="9.132" height="9.693" viewBox="0 0 9.132 9.693">
  <path id="Path_427" data-name="Path 427" d="M971.29,7.616h-1.162V.173a.159.159,0,0,0-.054-.124A.2.2,0,0,0,969.934,0h-1.162a.2.2,0,0,0-.139.049.16.16,0,0,0-.054.124V7.616h-1.162a.181.181,0,0,0-.182.108.152.152,0,0,0,.043.189l1.937,1.731a.233.233,0,0,0,.139.049.217.217,0,0,0,.139-.049l1.931-1.726a.192.192,0,0,0,.061-.13.161.161,0,0,0-.054-.125A.2.2,0,0,0,971.29,7.616Z" transform="translate(-967.218 0)" fill="#3d97ff"/>
  <path id="Path_428" data-name="Path 428" d="M1188.6,4.153h-.669a.308.308,0,0,1-.183-.05.319.319,0,0,1-.106-.125l-.347-.847h-1.925l-.347.847a.28.28,0,0,1-.1.121.3.3,0,0,1-.183.055h-.675L1185.89,0h.881Zm-1.527-1.568L1186.5,1.2c-.028-.061-.057-.134-.087-.218s-.06-.175-.09-.273q-.042.146-.087.274t-.087.223l-.563,1.376Z" transform="translate(-1179.464)" fill="#3d97ff"/>
  <path id="Path_429" data-name="Path 429" d="M1196.9,256.139a.447.447,0,0,1-.1.278l-2.751,3.472h2.784v.712h-4.078v-.351a.328.328,0,0,1,.026-.128.507.507,0,0,1,.067-.114l2.758-3.489h-2.677v-.709h3.967Z" transform="translate(-1187.979 -250.964)" fill="#3d97ff"/>
</svg>
