<svg xmlns="http://www.w3.org/2000/svg" width="9.102" height="9.622" viewBox="0 0 9.102 9.622"><defs><style>.a{fill:#3d97ff;}</style></defs><g transform="translate(0 0)"><path class="a" d="M971.277,2.062h-1.158V9.45a.158.158,0,0,1-.054.123.2.2,0,0,1-.139.048h-1.158a.2.2,0,0,1-.139-.048.158.158,0,0,1-.054-.123V2.062h-1.159a.18.18,0,0,1-.181-.107.151.151,0,0,1,.042-.188l1.93-1.718A.233.233,0,0,1,969.346,0a.216.216,0,0,1,.139.048l1.924,1.713a.19.19,0,0,1,.06.129.159.159,0,0,1-.054.124A.2.2,0,0,1,971.277,2.062Z" transform="translate(-967.218)"/><path class="a" d="M1188.581,4.122h-.666a.309.309,0,0,1-.182-.05.318.318,0,0,1-.106-.124l-.346-.841h-1.919l-.346.841a.277.277,0,0,1-.1.12.3.3,0,0,1-.182.054h-.673L1185.883,0h.878Zm-1.522-1.556-.564-1.371c-.028-.061-.057-.133-.086-.217s-.06-.174-.09-.271q-.041.145-.086.272t-.086.221l-.561,1.365Z" transform="translate(-1179.479 0)"/><path class="a" d="M1196.889,256.137a.443.443,0,0,1-.1.276l-2.742,3.446h2.775v.707h-4.065v-.349a.324.324,0,0,1,.026-.127.5.5,0,0,1,.067-.113l2.749-3.463h-2.668v-.7h3.954Z" transform="translate(-1187.995 -251)"/></g></svg>