<svg xmlns="http://www.w3.org/2000/svg" width="16.807" height="16.807" viewBox="0 0 16.807 16.807"><defs><style>.a{fill:none;}.b,.d{fill:#0e4f6e;}.c,.d{stroke:none;}</style></defs><g transform="translate(-945.597 -90.597)"><g class="a" transform="translate(945.597 90.597)"><path class="c" d="M8.4,0A8.4,8.4,0,1,1,0,8.4,8.4,8.4,0,0,1,8.4,0Z"/><path class="d" d="M 8.4033203125 1.5 C 4.596819877624512 1.5 1.5 4.596819877624512 1.5 8.4033203125 C 1.5 12.20981979370117 4.596819877624512 15.306640625 8.4033203125 15.306640625 C 12.20981979370117 15.306640625 15.306640625 12.20981979370117 15.306640625 8.4033203125 C 15.306640625 4.596819877624512 12.20981979370117 1.5 8.4033203125 1.5 M 8.4033203125 0 C 13.04435062408447 0 16.806640625 3.762290000915527 16.806640625 8.4033203125 C 16.806640625 13.04435062408447 13.04435062408447 16.806640625 8.4033203125 16.806640625 C 3.762290000915527 16.806640625 0 13.04435062408447 0 8.4033203125 C 0 3.762290000915527 3.762290000915527 0 8.4033203125 0 Z"/></g><path class="b" d="M9.445-12.672v3.1h-2.2v-3.1H3.951v-2.055H7.241v-3.086h2.2v3.086h3.316v2.055Z" transform="translate(945.946 112.849)"/></g></svg>