<svg xmlns="http://www.w3.org/2000/svg" width="13.417" height="13.418" viewBox="0 0 13.417 13.418"><defs><style>.a{fill:#0e4f6e;fill-rule:evenodd;}</style></defs><g transform="translate(0)"><g transform="translate(0 0)"><path class="a" d="M25.139,15.727a.437.437,0,0,0-.431-.33,1.481,1.481,0,0,1-1.014-2.578.372.372,0,0,0,.041-.506,6.64,6.64,0,0,0-1.063-1.073.373.373,0,0,0-.51.041,1.546,1.546,0,0,1-1.673.376,1.49,1.49,0,0,1-.906-1.457.372.372,0,0,0-.329-.392,6.7,6.7,0,0,0-1.509,0,.373.373,0,0,0-.332.384,1.493,1.493,0,0,1-.919,1.431,1.55,1.55,0,0,1-1.661-.378.374.374,0,0,0-.506-.043,6.669,6.669,0,0,0-1.085,1.073.373.373,0,0,0,.04.51,1.487,1.487,0,0,1,.375,1.674,1.551,1.551,0,0,1-1.46.907.365.365,0,0,0-.387.329,6.723,6.723,0,0,0,0,1.526.444.444,0,0,0,.44.33,1.471,1.471,0,0,1,1.38.919,1.492,1.492,0,0,1-.375,1.659.373.373,0,0,0-.041.506A6.664,6.664,0,0,0,14.272,21.7a.373.373,0,0,0,.51-.04,1.544,1.544,0,0,1,1.673-.376,1.488,1.488,0,0,1,.908,1.456.373.373,0,0,0,.329.392,6.673,6.673,0,0,0,1.509,0,.373.373,0,0,0,.332-.384,1.491,1.491,0,0,1,.918-1.431,1.548,1.548,0,0,1,1.662.378.375.375,0,0,0,.506.042A6.683,6.683,0,0,0,23.7,20.672a.372.372,0,0,0-.04-.51,1.487,1.487,0,0,1-.376-1.674,1.5,1.5,0,0,1,1.372-.909l.083,0a.373.373,0,0,0,.393-.329A6.716,6.716,0,0,0,25.139,15.727Zm-6.656,3a2.238,2.238,0,1,1,2.238-2.238A2.24,2.24,0,0,1,18.483,18.724Z" transform="translate(-11.764 -9.763)"/></g></g></svg>