<svg xmlns="http://www.w3.org/2000/svg" width="30" height="30" viewBox="0 0 30 30"><defs><style>.a{fill:none;}</style></defs><circle class="a" cx="15" cy="15" r="15"/><path d="M25.969,22.607H12.12a1.481,1.481,0,0,0-1.5,1.455v8.371a1.481,1.481,0,0,0,1.5,1.455h9.546l2.16,2.12a.473.473,0,0,0,.812-.323v-1.8h1.329a1.481,1.481,0,0,0,1.5-1.455V24.062A1.481,1.481,0,0,0,25.969,22.607Zm-11.725,7.2a1.348,1.348,0,1,1,1.385-1.347A1.376,1.376,0,0,1,14.243,29.81Zm4.856,0a1.348,1.348,0,1,1,1.385-1.347A1.376,1.376,0,0,1,19.1,29.81Zm4.838,0a1.348,1.348,0,1,1,1.385-1.347A1.376,1.376,0,0,1,23.937,29.81Z" transform="translate(-4.247 -12.864)"/></svg>