<svg xmlns="http://www.w3.org/2000/svg" width="15.717" height="16.804" viewBox="0 0 15.717 16.804"><defs><style>.a,.b{fill:#fff;}.a{stroke:#fff;stroke-width:0.5px;}</style></defs><g transform="translate(0.25 0.25)"><path class="a" d="M23.042,8.53h-.272V8.258A1.36,1.36,0,0,0,21.412,6.9H21.14V6.628a1.36,1.36,0,0,0-1.359-1.359H10.543A1.36,1.36,0,0,0,9.184,6.628V16.953a1.36,1.36,0,0,0,1.359,1.359h.272v.272a1.36,1.36,0,0,0,1.359,1.359h.272v.272A1.36,1.36,0,0,0,13.8,21.573h9.239A1.36,1.36,0,0,0,24.4,20.214V9.888A1.36,1.36,0,0,0,23.042,8.53ZM10.815,8.258v9.511h-.272a.815.815,0,0,1-.815-.815V6.628a.815.815,0,0,1,.815-.815h9.239a.815.815,0,0,1,.815.815V6.9H12.173A1.36,1.36,0,0,0,10.815,8.258Zm1.63,1.63V19.4h-.272a.815.815,0,0,1-.815-.815V8.258a.815.815,0,0,1,.815-.815h9.239a.815.815,0,0,1,.815.815V8.53H13.8A1.36,1.36,0,0,0,12.445,9.888ZM23.858,20.214a.815.815,0,0,1-.815.815H13.8a.815.815,0,0,1-.815-.815V11.247H23.858Zm0-9.511H12.988V9.888a.815.815,0,0,1,.815-.815h9.239a.815.815,0,0,1,.815.815Z" transform="translate(-9.184 -5.269)"/><path class="b" d="M40.973,36.692a.268.268,0,0,0-.443.09.257.257,0,0,0,0,.207.318.318,0,0,0,.057.09.282.282,0,0,0,.09.057.269.269,0,0,0,.3-.057.315.315,0,0,0,.057-.09.255.255,0,0,0,0-.207A.278.278,0,0,0,40.973,36.692Z" transform="translate(-36.16 -32.265)"/><path class="b" d="M46.845,36.692a.268.268,0,0,0-.443.09.272.272,0,0,0-.022.1.229.229,0,0,0,.022.1.245.245,0,0,0,.147.147.269.269,0,0,0,.3-.057.315.315,0,0,0,.057-.09.255.255,0,0,0,0-.207A.278.278,0,0,0,46.845,36.692Z" transform="translate(-41.217 -32.265)"/><path class="b" d="M52.718,36.692a.284.284,0,0,0-.386,0,.278.278,0,0,0-.057.09.227.227,0,0,0-.022.1.272.272,0,1,0,.522-.1A.278.278,0,0,0,52.718,36.692Z" transform="translate(-46.275 -32.265)"/></g></svg>