<svg xmlns="http://www.w3.org/2000/svg" width="9.946" height="14.821" viewBox="0 0 9.946 14.821"><defs><style>.a{fill:#0e4f6e;}</style></defs><path class="a" d="M40.273,15.911a.873.873,0,0,0-.579-.341l-2.31-.325.1-.734a.742.742,0,0,0-.631-.837L34.9,13.4a.743.743,0,0,0-.837.631l-.1.734-2.31-.325a.881.881,0,0,0-.992.748L30.5,16.274l2.063.29L31.121,18.01a.318.318,0,0,0-.05.075h-.255v9.207a.922.922,0,0,0,.921.921h7.05a.922.922,0,0,0,.921-.921V18.085H38.474v-.691l1.815.255.153-1.087A.872.872,0,0,0,40.273,15.911ZM34.551,14.1a.247.247,0,0,1,.279-.21l1.957.275a.249.249,0,0,1,.21.279l-.1.734-2.446-.344Zm-2.807,3.987.886-.886.885.886Zm2.777,0v-.247H36v.247Zm2.717,0v-.247h.741v.247Zm-.494-.741v.741H36.5v-.741h-2.47V17.9l-1.314-1.314,5.407.76Z" transform="translate(-30.504 -13.392)"/></svg>