<svg xmlns="http://www.w3.org/2000/svg" width="19.41" height="20.253" viewBox="0 0 19.41 20.253"><defs><style>.a,.c,.f{fill:none;}.a{stroke:#0e4f6e;stroke-width:1.2px;}.b,.g{fill:#fff;}.d,.h{fill:#0e4f6e;}.e,.g,.h{stroke:none;}</style></defs><g transform="translate(-946.325 -150.256)"><g class="a" transform="translate(946.325 150.256)"><rect class="e" width="9.465" height="4.302" rx="1"/><rect class="f" x="0.6" y="0.6" width="8.265" height="3.102" rx="0.4"/></g><g class="a" transform="translate(946.325 155.419)"><rect class="e" width="9.465" height="10.326" rx="1"/><rect class="f" x="0.6" y="0.6" width="8.265" height="9.126" rx="0.4"/></g><g class="a" transform="translate(956.651 150.256)"><rect class="e" width="6.023" height="9.465" rx="1"/><rect class="f" x="0.6" y="0.6" width="4.823" height="8.265" rx="0.4"/></g><g class="b" transform="translate(953.106 157.224)"><path class="e" d="M 6.3145751953125 12.53535747528076 C 3.246265172958374 12.53535747528076 0.7500051856040955 9.891907691955566 0.7500051856040955 6.642677307128906 C 0.7500051856040955 3.393447399139404 3.246265172958374 0.7499973177909851 6.3145751953125 0.7499973177909851 C 9.382895469665527 0.7499973177909851 11.87915515899658 3.393447399139404 11.87915515899658 6.642677307128906 C 11.87915515899658 9.891907691955566 9.382895469665527 12.53535747528076 6.3145751953125 12.53535747528076 Z"/><path class="g" d="M 6.3145751953125 1.499997138977051 C 3.659805297851563 1.499997138977051 1.499995231628418 3.806997299194336 1.499995231628418 6.642677307128906 C 1.499995231628418 9.478357315063477 3.659805297851563 11.78535747528076 6.3145751953125 11.78535747528076 C 8.969335556030273 11.78535747528076 11.1291446685791 9.478357315063477 11.1291446685791 6.642677307128906 C 11.1291446685791 3.806997299194336 8.969335556030273 1.499997138977051 6.3145751953125 1.499997138977051 M 6.3145751953125 -2.86102294921875e-06 C 9.80201530456543 -2.86102294921875e-06 12.62914562225342 2.974027633666992 12.62914562225342 6.642677307128906 C 12.62914562225342 10.31132698059082 9.80201530456543 13.28535747528076 6.3145751953125 13.28535747528076 C 2.82713508605957 13.28535747528076 -4.76837158203125e-06 10.31132698059082 -4.76837158203125e-06 6.642677307128906 C -4.76837158203125e-06 2.974027633666992 2.82713508605957 -2.86102294921875e-06 6.3145751953125 -2.86102294921875e-06 Z"/></g><g class="c" transform="translate(954.597 158.597)"><path class="e" d="M4.658,0A4.658,4.658,0,1,1,0,4.658,4.658,4.658,0,0,1,4.658,0Z"/><path class="h" d="M 4.657798767089844 1.499998569488525 C 2.916578769683838 1.499998569488525 1.499998569488525 2.916578769683838 1.499998569488525 4.657798767089844 C 1.499998569488525 6.39901876449585 2.916578769683838 7.815598487854004 4.657798767089844 7.815598487854004 C 6.39901876449585 7.815598487854004 7.815598487854004 6.39901876449585 7.815598487854004 4.657798767089844 C 7.815598487854004 2.916578769683838 6.39901876449585 1.499998569488525 4.657798767089844 1.499998569488525 M 4.657798767089844 -9.5367431640625e-07 C 7.230228424072266 -9.5367431640625e-07 9.315598487854004 2.085368633270264 9.315598487854004 4.657798767089844 C 9.315598487854004 7.230228424072266 7.230228424072266 9.315598487854004 4.657798767089844 9.315598487854004 C 2.085368633270264 9.315598487854004 -9.5367431640625e-07 7.230228424072266 -9.5367431640625e-07 4.657798767089844 C -9.5367431640625e-07 2.085368633270264 2.085368633270264 -9.5367431640625e-07 4.657798767089844 -9.5367431640625e-07 Z"/></g><path class="d" d="M6.619-15.317v1.507H5.548v-1.507h-1.6v-1h1.6v-1.5h1.07v1.5h1.61v1Z" transform="translate(953.213 178.969)"/></g></svg>