<svg xmlns="http://www.w3.org/2000/svg" width="16.636" height="18.279" viewBox="0 0 16.636 18.279"><defs><style>.a{fill:none;}.b,.d{fill:#0e4f6e;}.c,.d{stroke:none;}</style></defs><g transform="translate(-945.276 -117.634)"><g class="a" transform="translate(952.597 126.597)"><path class="c" d="M4.658,0A4.658,4.658,0,1,1,0,4.658,4.658,4.658,0,0,1,4.658,0Z"/><path class="d" d="M 4.657798767089844 1.499998569488525 C 2.916578769683838 1.499998569488525 1.499998569488525 2.916578769683838 1.499998569488525 4.657798767089844 C 1.499998569488525 6.39901876449585 2.916578769683838 7.815598487854004 4.657798767089844 7.815598487854004 C 6.39901876449585 7.815598487854004 7.815598487854004 6.39901876449585 7.815598487854004 4.657798767089844 C 7.815598487854004 2.916578769683838 6.39901876449585 1.499998569488525 4.657798767089844 1.499998569488525 M 4.657798767089844 -9.5367431640625e-07 C 7.230228424072266 -9.5367431640625e-07 9.315598487854004 2.085368633270264 9.315598487854004 4.657798767089844 C 9.315598487854004 7.230228424072266 7.230228424072266 9.315598487854004 4.657798767089844 9.315598487854004 C 2.085368633270264 9.315598487854004 -9.5367431640625e-07 7.230228424072266 -9.5367431640625e-07 4.657798767089844 C -9.5367431640625e-07 2.085368633270264 2.085368633270264 -9.5367431640625e-07 4.657798767089844 -9.5367431640625e-07 Z"/></g><path class="b" d="M6.619-15.317v1.507H5.548v-1.507h-1.6v-1h1.6v-1.5h1.07v1.5h1.61v1Z" transform="translate(951.213 146.969)"/><g transform="translate(926.276 109.634)"><path class="b" d="M43.365,52.057a.645.645,0,0,0-.573-.7h-5.9a.712.712,0,0,0,0,1.4h5.9A.645.645,0,0,0,43.365,52.057Z" transform="translate(-14.532 -36.379)"/><path class="b" d="M36.879,68.7a.715.715,0,0,0,0,1.4h3.5a.715.715,0,0,0,0-1.4Z" transform="translate(-14.532 -50.932)"/><path class="b" d="M25.5,24.264l-3.712.208a1.4,1.4,0,0,1-1.4-1.4V10.792a1.4,1.4,0,0,1,1.4-1.4h8.581a1.4,1.4,0,0,1,1.4,1.4v4.292a.7.7,0,1,0,1.4,0V10.792A2.8,2.8,0,0,0,30.373,8H21.792A2.8,2.8,0,0,0,19,10.792V23.076a2.8,2.8,0,0,0,2.792,2.792l3.712-.208a.7.7,0,0,0,0-1.4Z"/><path class="b" d="M44.207,34.016H37.018a.7.7,0,0,0,0,1.4h7.189a.7.7,0,1,0,0-1.4Z" transform="translate(-14.532 -21.828)"/></g></g></svg>