<svg xmlns="http://www.w3.org/2000/svg" width="15.94" height="14.238" viewBox="0 0 15.94 14.238"><defs><style>.a{fill:#fff;}</style></defs><path class="a" d="M23.263,17.675H8.515a.6.6,0,0,0-.6.6V31.318a.594.594,0,0,0,.255.487V31.9h.213a.594.594,0,0,0,.127.014H23.263a.594.594,0,0,0,.126-.014h.029V31.89a.6.6,0,0,0,.44-.572V18.271A.6.6,0,0,0,23.263,17.675ZM10.273,31.388H8.47a.083.083,0,0,1-.041-.071V29.772h1.843Zm0-2.127H8.429V27.585h1.843Zm0-2.187H8.429V25.3h1.843Zm0-2.28H8.429V22.88h1.843Zm0-2.425H8.429V20.5h1.843Zm4.3,9.019H10.783V29.772H14.57v1.617Zm0-2.127H10.783V27.585H14.57v1.676Zm0-2.187H10.783V25.3H14.57v1.77Zm0-2.28H10.783V22.88H14.57v1.915Zm0-2.425H10.783V20.5H14.57v1.872Zm0-2.382H10.783v-1.8H14.57v1.8Zm4.34,11.4H15.08V29.772H18.91Zm0-2.127H15.08V27.585H18.91Zm0-2.187H15.08V25.3H18.91Zm0-2.28H15.08V22.88H18.91Zm0-2.425H15.08V20.5H18.91Zm0-2.382H15.08v-1.8H18.91Zm4.439,11.331a.084.084,0,0,1-.041.071H19.42V29.772h3.928Zm0-2.056H19.42V27.585h3.928Zm0-2.187H19.42V25.3h3.928Zm0-2.28H19.42V22.88h3.928Zm0-2.425H19.42V20.5h3.928Zm0-2.382H19.42v-1.8h3.843a.085.085,0,0,1,.085.085v1.716ZM14.19,26.676H11.126V25.61H14.19v1.066Zm4.33.04H15.456V25.65H18.52Zm4.436-.023H19.892V25.627h3.064Z" transform="translate(-7.919 -17.675)"/></svg>