<svg xmlns="http://www.w3.org/2000/svg" width="28.241" height="28.245" viewBox="0 0 28.241 28.245"><defs><style>.a{fill:#0e4f6e;}</style></defs><g transform="translate(0 0)"><path class="a" d="M72.257,26.53l-.423.134-2.251.2-.636,1.015-.461-.146L66.7,26.118l-.26-.84-.348-.9-1.126-1.01-1.328-.26-.031.608,1.3,1.27.637.75-.716.374-.583-.172-.873-.364.03-.7L62.254,24.4l-.38,1.655-1.154.262.114.923,1.5.289.26-1.475,1.242.183.577.338h.926l.634,1.27,1.68,1.7-.123.663-1.355-.173-2.341,1.182-1.686,2.022-.219.9h-.6l-1.128-.52-1.095.52.272,1.155.477-.549.838-.026-.059,1.038.694.2.693.779,1.132-.318,1.293.2,1.5.4.75.088,1.271,1.443,2.453,1.443-1.587,3.032-1.675.779-.636,1.733L64.1,47.167l-.258.933a14.1,14.1,0,0,0,8.414-21.57Z" transform="translate(-46.407 -20.265)"/><path class="a" d="M31.162,51.343l-1.029-1.907.944-1.967-.944-.282-1.06-1.065L26.725,45.6l-.779-1.631v.968H25.6l-2.024-2.744V39.935l-1.483-2.412-2.356.42H18.152l-.8-.523,1.019-.807-1.016.235A14.1,14.1,0,0,0,29.538,58.086a14.8,14.8,0,0,0,1.772-.123l-.147-1.711s.648-2.541.648-2.627S31.162,51.343,31.162,51.343Z" transform="translate(-15.418 -29.84)"/><path class="a" d="M28.547,17.867l2.508-.35,1.156-.634,1.3.375,2.079-.115.712-1.119,1.038.171,2.522-.237.695-.766.98-.654,1.386.208.505-.076a14.076,14.076,0,0,0-16.9,3.778h.007Zm9.469-3.149,1.442-.794.926.535-1.34,1.02-1.28.129-.576-.374Zm-4.271.116.637.265.834-.265.454.787-1.924.505-.925-.541S33.723,15,33.744,14.833Z" transform="translate(-23.3 -13.313)"/></g></svg>