<svg xmlns="http://www.w3.org/2000/svg" width="19.764" height="16.314" viewBox="0 0 19.764 16.314"><defs><style>.a{fill:#fff;}</style></defs><path class="a" d="M175.868,56.656a3.573,3.573,0,0,1-1.058-2.035,3.854,3.854,0,0,1-3.7-.332,3.714,3.714,0,0,0-2.787,3.59v3.008l.008.046.207.065a17.392,17.392,0,0,0,4.18.786v-.909A4.411,4.411,0,0,1,175.868,56.656Z" transform="translate(-168.323 -48.491)"/><path class="a" d="M201.239,69.333a3.49,3.49,0,0,1-3.785,0,3.715,3.715,0,0,0-3.047,3.649V75.99l.008.047.207.065a16.889,16.889,0,0,0,5.046.814,10.362,10.362,0,0,0,4.406-.827l.194-.1h.021V72.982A3.714,3.714,0,0,0,201.239,69.333Z" transform="translate(-189.321 -60.602)"/><path class="a" d="M236.943,54.289a3.851,3.851,0,0,1-3.428.438,3.573,3.573,0,0,1-1.039,1.929,4.41,4.41,0,0,1,3.15,4.22V61.8a9.983,9.983,0,0,0,3.89-.817l.194-.1h.021V57.879A3.714,3.714,0,0,0,236.943,54.289Z" transform="translate(-219.966 -48.491)"/><path class="a" d="M231.755,30a2.9,2.9,0,1,0-1.513-2.761A3.591,3.591,0,0,1,231.755,30Z" transform="translate(-218.168 -24.557)"/><path class="a" d="M181.235,30.345a2.879,2.879,0,0,0,1.5-.56,3.588,3.588,0,0,1,1.175-2.382c0-.054,0-.108,0-.163a2.9,2.9,0,1,0-2.676,3.1Z" transform="translate(-176.211 -24.557)"/><path class="a" d="M204.89,41.368a2.824,2.824,0,1,0-.01-.2C204.88,41.237,204.886,41.3,204.89,41.368Z" transform="translate(-197.751 -35.597)"/></svg>