<svg xmlns="http://www.w3.org/2000/svg" width="13.43" height="10.968" viewBox="0 0 13.43 10.968"><defs><style>.a{fill:#0e4f6e;}</style></defs><g transform="translate(0)"><path class="a" d="M17.734,53.268a.127.127,0,0,0-.122.093l-2.564,6.4v.224c0,.164-.011.224.127.224H25.193a.568.568,0,0,0,.548-.406l2.289-6.309v-.224Zm3.878,1.862.8,1.424h-.657v.664h-.328v-.664h-.615Zm2.374,3.108h-.672v0H19.763v0h-.672V56.99h.672v.575h3.551V56.99h.672Z" transform="translate(-14.6 -49.239)"/><path class="a" d="M14.366,25.049H23.6v-1.4a.612.612,0,0,0-.611-.611H17.451l-1.119-1.567h-4.2a.612.612,0,0,0-.612.612v9.355l2.3-5.98A.568.568,0,0,1,14.366,25.049Z" transform="translate(-11.516 -21.468)"/></g></svg>