<svg xmlns="http://www.w3.org/2000/svg" width="14.621" height="16.314" viewBox="0 0 14.621 16.314"><defs><style>.a{fill:#fff;}</style></defs><g transform="translate(0)"><path class="a" d="M47.813,53.527a.637.637,0,0,0-.637-.637H40.612a.637.637,0,0,0,0,1.275h6.564A.637.637,0,0,0,47.813,53.527Z" transform="translate(-37.429 -46.517)"/><path class="a" d="M40.612,68.761a.637.637,0,0,0,0,1.275H44.6a.637.637,0,0,0,0-1.275Z" transform="translate(-37.429 -59.839)"/><path class="a" d="M28.806,28.25H26.674A1.276,1.276,0,0,1,25.4,26.976V15.76a1.276,1.276,0,0,1,1.275-1.274h7.835a1.276,1.276,0,0,1,1.275,1.274v3.919a.637.637,0,1,0,1.275,0V15.76a2.552,2.552,0,0,0-2.549-2.549H26.674a2.552,2.552,0,0,0-2.549,2.549V26.976a2.552,2.552,0,0,0,2.549,2.549h2.131a.637.637,0,0,0,0-1.275Z" transform="translate(-24.125 -13.211)"/><path class="a" d="M74.306,67.738a1.914,1.914,0,0,0-2.7,0l-3.5,3.491a.639.639,0,0,0-.16.266L67.182,74a.637.637,0,0,0,.78.8l2.572-.712a.639.639,0,0,0,.28-.163l3.491-3.485A1.914,1.914,0,0,0,74.306,67.738Zm-4.273,5.168-1.294.358.379-1.247,2.361-2.355.9.9Zm3.372-3.366-.124.123-.9-.9.123-.123a.637.637,0,0,1,.9.9Z" transform="translate(-60.244 -58.511)"/><path class="a" d="M47.176,37.018H40.612a.637.637,0,0,0,0,1.275h6.564a.637.637,0,0,0,0-1.275Z" transform="translate(-37.429 -33.194)"/></g></svg>