<svg xmlns="http://www.w3.org/2000/svg" width="30" height="30" viewBox="0 0 30 30"><defs><style>.a{fill:none;}</style></defs><circle class="a" cx="15" cy="15" r="15"/><g transform="translate(7.754 4.372)"><path d="M47.263,22.725v-1a.672.672,0,1,0-.625-.007v1.017a.675.675,0,0,0-.306.347h-1.07a.672.672,0,1,0-.063.611h1.2a.672.672,0,1,0,.868-.965Z" transform="translate(-41.887 -20.451)"/><path d="M46.483,37.212h-1a.672.672,0,1,0-.007.625h1.017a.673.673,0,0,0,.347.306v1.071a.672.672,0,1,0,.611.063v-1.2a.672.672,0,1,0-.965-.868Z" transform="translate(-42.071 -32.751)"/><path d="M37.16,39.654h1a.671.671,0,1,0,.007-.625H37.153a.674.674,0,0,0-.347-.306v-1.07a.672.672,0,1,0-.611-.063v1.2a.672.672,0,1,0,.965.868Z" transform="translate(-35.829 -32.384)"/><path d="M36.012,54.508v1a.671.671,0,1,0,.625.007V54.5a.676.676,0,0,0,.306-.347h1.07a.672.672,0,1,0,.063-.611h-1.2a.672.672,0,1,0-.868.965Z" transform="translate(-35.645 -45.051)"/><path d="M47.263,55.512v-1a.671.671,0,1,0-.625-.007v1.017a.676.676,0,0,0-.306.347h-1.07a.672.672,0,1,0-.063.611h1.2a.672.672,0,1,0,.868-.965Z" transform="translate(-41.887 -45.051)"/><path d="M46.483,69.509h-1a.671.671,0,1,0-.007.625h1.017a.674.674,0,0,0,.347.306V71.51a.672.672,0,1,0,.611.063v-1.2a.672.672,0,1,0-.965-.868Z" transform="translate(-42.071 -56.984)"/><path d="M52.4,89.4a.853.853,0,0,0,.439.388v1.356a.851.851,0,1,0,.774.079V89.707a.851.851,0,1,0-1.222-1.1.927.927,0,0,0-.093.374A.883.883,0,0,0,52.4,89.4Z" transform="translate(-48.14 -71.239)"/><g transform="translate(6.992 0.311)"><path d="M64.631,93.836a.915.915,0,0,0,.883-.678l.2-.735A1.284,1.284,0,0,0,66.8,91.152v-.809a.787.787,0,0,0-.781-.787H63.645v4.28Z" transform="translate(-63.645 -72.611)"/><path d="M63.645,21.7V37.605H65.76a1.128,1.128,0,0,0,1.117-.952,6.26,6.26,0,0,1,1.676-3.4A6.82,6.82,0,0,0,63.645,21.7Z" transform="translate(-63.645 -21.698)"/></g></g></svg>