<svg xmlns="http://www.w3.org/2000/svg" xmlns:xlink="http://www.w3.org/1999/xlink" width="87.599" height="27.636" viewBox="0 0 87.599 27.636"><defs><style>.a{fill:#0e4f6e;}.b{fill:#d3d3d3;}.c{fill:url(#a);}.d{fill:url(#b);}.e{fill:url(#c);}.f{fill:#61abe1;}.g{fill:#7ccdf5;}.h{fill:url(#d);}.i{fill:url(#f);}.j{fill:url(#g);}</style><linearGradient id="a" x1="0.5" y1="0.993" x2="0.5" y2="0.214" gradientUnits="objectBoundingBox"><stop offset="0" stop-color="#d3be10"/><stop offset="1" stop-color="#768a29"/></linearGradient><linearGradient id="b" x1="0.5" y1="0.973" x2="0.5" y2="-0.07" gradientUnits="objectBoundingBox"><stop offset="0" stop-color="#ffb000"/><stop offset="0.958" stop-color="#d28117"/></linearGradient><linearGradient id="c" x1="0.5" y1="0.868" x2="0.5" y2="0.128" gradientUnits="objectBoundingBox"><stop offset="0" stop-color="#1dacc4"/><stop offset="1" stop-color="#0e4f6e"/></linearGradient><linearGradient id="d" x1="0.5" y1="0.993" x2="0.5" y2="0.214" gradientUnits="objectBoundingBox"><stop offset="0" stop-color="#d3be10"/><stop offset="1" stop-color="#cab615"/></linearGradient><linearGradient id="f" x1="0.5" y1="0.993" x2="0.5" y2="0.214" xlink:href="#d"/><linearGradient id="g" x1="0.302" y1="0.766" x2="0.986" y2="-0.238" gradientUnits="objectBoundingBox"><stop offset="0" stop-color="#f39500"/><stop offset="1" stop-color="#e9cb00"/></linearGradient></defs><g transform="translate(0 0)"><path class="a" d="M412,158.835c-.214.28-.371.5-.542.707a5.541,5.541,0,0,1-3.75,1.978,8,8,0,0,1-3.81-.414,6.753,6.753,0,0,1-4.026-3.8,8.87,8.87,0,0,1-.668-3.044,8.528,8.528,0,0,1,1.133-4.985,6.978,6.978,0,0,1,4.086-3.151,10.262,10.262,0,0,1,5.714-.112,6.63,6.63,0,0,1,4.192,3.334,12.9,12.9,0,0,1,1.4,4.68,26.559,26.559,0,0,1,.209,4.958,15.128,15.128,0,0,1-1.665,6.571,8.187,8.187,0,0,1-4.4,3.988,7.858,7.858,0,0,1-2.006.434,7.967,7.967,0,0,1-4.608-.811,6.446,6.446,0,0,1-3.56-4.836c-.125-.814-.222-.715.6-.72.98-.005,1.96,0,2.939,0,.252,0,.359.075.406.339a3.136,3.136,0,0,0,2.74,2.79,3.76,3.76,0,0,0,3.442-1.006,6.4,6.4,0,0,0,1.531-2.764,20.455,20.455,0,0,0,.572-3.534C411.952,159.256,411.97,159.083,412,158.835Zm-8.849-5.165c.03.355.043.713.094,1.066a4.674,4.674,0,0,0,1.106,2.494,4.122,4.122,0,0,0,6.5-.641,5.767,5.767,0,0,0,.5-4.713,3.987,3.987,0,0,0-1.231-1.955,4.2,4.2,0,0,0-3.143-1,3.629,3.629,0,0,0-2.812,1.46A5.256,5.256,0,0,0,403.147,153.67Z" transform="translate(-328.373 -143.971)"/><path class="a" d="M240.924,145.568H218.715c-.384,0-.4.012-.4.4q0,1.363,0,2.727c0,.4.008.422.379.423h8.872c.477,0,.477,0,.477.482,0,6.513,0,13.237,0,19.749,0,.1,0,.206,0,.309,0,.177.079.254.255.254q1.631,0,3.261,0c.177,0,.26-.078.254-.254,0-.1,0-.206,0-.309,0-6.522,0-13.255,0-19.778,0-.452,0-.453.449-.453h8.715c.382,0,.394-.012.394-.4q0-1.35,0-2.7C241.378,145.568,241.378,145.568,240.924,145.568Z" transform="translate(-189.887 -143.902)"/><path class="a" d="M322.1,169.713h0v0c-.011-.034-.024-.071-.042-.116q-2.785-7.135-5.571-14.269-1.39-3.561-2.78-7.121c-.013-.034-.027-.067-.041-.1l-.023-.057h0a5.183,5.183,0,0,0-1.118-1.734,2.966,2.966,0,0,0-3.629-.231,4.7,4.7,0,0,0-1.305,1.9c-.563,1.4-1.1,2.808-1.655,4.212q-2.419,6.146-4.84,12.292-1,2.55-2,5.1c-.126.321-.107.343.249.343,1.1,0,2.193-.008,3.289.007a.468.468,0,0,0,.518-.348c.566-1.449,1.153-2.889,1.722-4.337a.439.439,0,0,1,.472-.332q5.229.012,10.459,0a.439.439,0,0,1,.481.321c.568,1.458,1.155,2.908,1.725,4.366a.429.429,0,0,0,.474.329c.552-.019,1.106-.006,1.659-.006s1.124,0,1.687,0C322.106,169.929,322.162,169.906,322.1,169.713Zm-7.583-8.336-.168,0h-7.615c-.1,0-.2-.01-.358-.018l4.085-10.67.084-.007c.07.166.144.331.211.5q1.777,4.508,3.551,9.017c.123.314.24.63.365.943C314.735,161.3,314.682,161.374,314.517,161.377Z" transform="translate(-251.68 -143.902)"/><g transform="translate(0.454 0.862)"><path class="b" d="M137.6,179.75a3.613,3.613,0,0,0,1.658-.605l.034-.024c.064-.045.127-.091.187-.14a3.726,3.726,0,0,0,1.246-1.775h0c.01-.031.019-.061.029-.093a3.671,3.671,0,0,0-.108-2.462,4.1,4.1,0,0,0-1.5-1.823,1.9,1.9,0,0,1-.168-3.054c.154-.154.317-.3.478-.445a3.719,3.719,0,0,0-1.544-6.593c-.045-.009-.09-.013-.136-.021-.077-.012-.153-.026-.231-.034-.061-.006-.123-.007-.186-.009s-.118-.009-.178-.009h-.053c-.041,0-.08.006-.121.008-.084,0-.168.008-.25.017-.056.006-.112.017-.167.026s-.136.021-.2.036-.124.031-.186.048-.123.033-.183.053-.1.035-.145.053c-.083.031-.165.065-.245.1l-.041.02a3.72,3.72,0,0,0-2.113,3.035,3.274,3.274,0,0,0,.391,2.012,3.735,3.735,0,0,0,1.2,1.372c.143.143.284.288.419.439a1.791,1.791,0,0,1-.007,2.714c-.193.177-.388.352-.588.522l-.042.037a3.744,3.744,0,0,0-.625.646,3.365,3.365,0,0,0-.758,2.173c0,.026,0,.052,0,.078a3.7,3.7,0,0,0,.5,1.865l.016.026a3.762,3.762,0,0,0,.235.35l.012.016a3.727,3.727,0,0,0,1.6,1.208l.052.019c.082.03.164.06.249.085.022.007.045.011.067.017a3.748,3.748,0,0,0,.4.085c.057.009.114.02.172.026s.1.008.146.011c.072.005.144.01.217.011l.055,0c.024,0,.047,0,.07,0,.086,0,.172-.006.257-.013Z" transform="translate(-125.361 -157.853)"/><circle class="b" cx="3.723" cy="3.723" r="3.723" transform="translate(0 9.655)"/><path class="b" d="M176.376,163.927c-.027-.076-.055-.152-.087-.226a3.094,3.094,0,0,0-.316-.581l0-.006a3.74,3.74,0,0,0-.838-.885c-.116-.1-.236-.194-.362-.3a2.193,2.193,0,0,1-.765-1.112,2.031,2.031,0,0,1,.8-2.034q.145-.127.287-.256a3.72,3.72,0,0,0,1.383-2.032,3.3,3.3,0,0,0,0-1.915,3.72,3.72,0,0,0-1.367-2.022c-.154-.135-.31-.268-.466-.4a1.7,1.7,0,0,1-.634-1.75,2.935,2.935,0,0,1,1.1-1.481,3.766,3.766,0,0,0,1.5-3.054c0-.007,0-.013,0-.019s0-.021,0-.031,0-.036,0-.055,0-.042-.005-.063a3.719,3.719,0,0,0-7.178-1.212,3.649,3.649,0,0,0-.083,2.6,3.5,3.5,0,0,0,.9,1.379l.025.026c.168.171.343.336.519.5a4.259,4.259,0,0,1,.744.866,1.7,1.7,0,0,1-.29,2.158c-.187.184-.382.361-.575.539a3.746,3.746,0,0,0-.894.951,3.611,3.611,0,0,0-.1,3.9,3.739,3.739,0,0,0,.912,1.051c.189.174.379.347.56.529a1.861,1.861,0,0,1-.2,2.965q-.215.169-.411.347a3.733,3.733,0,0,0-.945,1.162,3.454,3.454,0,0,0-.426,1.811c0,.092.01.184.021.276a3.715,3.715,0,0,0,1.428,2.575,3.183,3.183,0,0,0,.855.5c.01,0,.022.006.032.01a3.716,3.716,0,0,0,4.892-4.7Z" transform="translate(-152.68 -142.136)"/></g><path class="c" d="M135.661,176.072a3.61,3.61,0,0,0,1.658-.605l.034-.024c.064-.045.127-.091.187-.14a3.726,3.726,0,0,0,1.245-1.775h0q.015-.046.029-.093a3.669,3.669,0,0,0-.108-2.461,4.1,4.1,0,0,0-1.5-1.823,1.9,1.9,0,0,1-.168-3.054c.154-.154.317-.3.479-.445a3.719,3.719,0,0,0-1.544-6.593c-.045-.009-.091-.013-.136-.021-.077-.012-.153-.026-.231-.034-.061-.006-.124-.007-.186-.009s-.118-.009-.178-.009h-.053c-.041,0-.08.006-.121.008-.084,0-.168.008-.25.017-.057.006-.112.017-.167.026s-.137.021-.2.036-.124.031-.186.048-.122.033-.183.053-.1.034-.144.053c-.083.031-.165.065-.245.1l-.041.02a3.72,3.72,0,0,0-2.113,3.035,3.273,3.273,0,0,0,.391,2.013,3.734,3.734,0,0,0,1.2,1.372c.143.144.284.288.419.439a1.791,1.791,0,0,1-.007,2.713c-.193.178-.388.352-.588.522l-.042.037a3.741,3.741,0,0,0-.625.646,3.364,3.364,0,0,0-.758,2.173c0,.026,0,.051,0,.078a3.7,3.7,0,0,0,.5,1.865l.016.026a3.7,3.7,0,0,0,.235.35l.012.016a3.729,3.729,0,0,0,1.6,1.208l.053.019c.082.031.164.06.249.085l.067.017a3.671,3.671,0,0,0,.4.085c.057.009.114.02.172.026s.1.008.146.011c.072.005.145.01.217.011l.055,0c.023,0,.046,0,.07,0,.086,0,.171-.006.257-.013Z" transform="translate(-123.425 -154.175)"/><circle class="d" cx="3.723" cy="3.723" r="3.723" transform="translate(0 9.642)"/><path class="e" d="M174.441,160.25c-.027-.076-.055-.152-.087-.226a3.1,3.1,0,0,0-.316-.581l0-.006a3.741,3.741,0,0,0-.838-.885c-.116-.1-.236-.194-.362-.3a2.2,2.2,0,0,1-.765-1.112,2.031,2.031,0,0,1,.8-2.034q.146-.128.288-.256a3.721,3.721,0,0,0,1.383-2.032,3.307,3.307,0,0,0,0-1.915,3.721,3.721,0,0,0-1.367-2.022c-.154-.135-.31-.268-.466-.4a1.7,1.7,0,0,1-.634-1.75,2.934,2.934,0,0,1,1.1-1.481,3.766,3.766,0,0,0,1.5-3.054c0-.007,0-.013,0-.019s0-.02,0-.031,0-.036,0-.055,0-.042-.005-.063a3.719,3.719,0,0,0-7.178-1.212,3.649,3.649,0,0,0-.084,2.6,3.5,3.5,0,0,0,.9,1.379l.026.026c.168.171.343.336.519.5a4.267,4.267,0,0,1,.744.866,1.7,1.7,0,0,1-.29,2.158c-.187.184-.381.361-.575.539a3.729,3.729,0,0,0-.894.951,3.61,3.61,0,0,0-.1,3.9,3.731,3.731,0,0,0,.912,1.051c.189.174.379.347.56.529a1.861,1.861,0,0,1-.2,2.965q-.215.168-.411.347a3.739,3.739,0,0,0-.945,1.162,3.452,3.452,0,0,0-.426,1.811c0,.092.01.184.021.276a3.714,3.714,0,0,0,1.428,2.575,3.181,3.181,0,0,0,.854.5l.032.01a3.716,3.716,0,0,0,4.892-4.7Z" transform="translate(-150.745 -138.459)"/><g transform="translate(16.929 0.34)"><path class="f" d="M188.955,223.173c.12.1.233.187.343.28a3.538,3.538,0,0,1,.793.837l0,.005c.043.062.08.127.118.192-.014-.035-.026-.071-.041-.106a2.917,2.917,0,0,0-.3-.549l0-.005a3.538,3.538,0,0,0-.793-.837c-.109-.092-.223-.184-.343-.28a3.715,3.715,0,0,1-.485-.526A2.167,2.167,0,0,0,188.955,223.173Z" transform="translate(-183.792 -202.905)"/><path class="f" d="M189.046,181.834c-.145-.128-.294-.254-.441-.381a2.127,2.127,0,0,1-.362-.4,1.8,1.8,0,0,0,.584.864c.147.127.3.252.44.38a3.531,3.531,0,0,1,.942,1.064A3.524,3.524,0,0,0,189.046,181.834Z" transform="translate(-183.788 -171.413)"/><path class="f" d="M169.642,144.773c-.011-.03-.023-.06-.033-.091a3.2,3.2,0,0,1,.073-2.276,3.258,3.258,0,0,1,5.852-.444,3.255,3.255,0,0,0-6.058.015,3.2,3.2,0,0,0-.073,2.276A2.382,2.382,0,0,0,169.642,144.773Z" transform="translate(-169.231 -139.908)"/><path class="f" d="M170.29,177.828a3.542,3.542,0,0,1,.846-.9c.183-.168.367-.335.544-.51a1.607,1.607,0,0,0,.274-2.042c-.012-.02-.027-.038-.04-.058a1.619,1.619,0,0,1-.456,1.636c-.177.174-.361.341-.544.51a3.533,3.533,0,0,0-.846.9,3.412,3.412,0,0,0-.123,3.631A3.388,3.388,0,0,1,170.29,177.828Z" transform="translate(-169.423 -166.256)"/><path class="g" d="M169.656,221.712c-.01-.087-.017-.175-.019-.261a3.267,3.267,0,0,1,.4-1.714,3.535,3.535,0,0,1,.894-1.1q.186-.169.389-.328a1.738,1.738,0,0,0,.5-2.425,1.772,1.772,0,0,1-.718,1.962q-.2.159-.389.328a3.535,3.535,0,0,0-.894,1.1,3.267,3.267,0,0,0-.4,1.714c0,.087.009.174.019.261a3.482,3.482,0,0,0,.453,1.407A3.477,3.477,0,0,1,169.656,221.712Z" transform="translate(-169.37 -198.082)"/></g><g transform="translate(8.531 5.25)"><path class="h" d="M133.569,164.256a3.241,3.241,0,0,1,1.841-2.644l.036-.017c.07-.032.141-.061.213-.089.042-.016.083-.032.126-.046s.106-.032.159-.046.107-.03.162-.042.118-.022.177-.031.1-.017.146-.022c.072-.008.145-.011.218-.015.035,0,.069-.007.1-.007h.046c.052,0,.1.005.155.008s.108,0,.162.008.134.018.2.029c.039.007.079.01.118.018a3.247,3.247,0,0,1,2.321,1.85,3.246,3.246,0,0,0-2.479-2.281c-.039-.008-.079-.012-.118-.018-.067-.011-.133-.023-.2-.029s-.108-.006-.162-.008-.1-.008-.155-.008h-.046c-.036,0-.07.006-.105.007-.073,0-.146.007-.218.015-.049.006-.1.015-.146.022s-.119.018-.177.031-.108.027-.162.042-.107.029-.159.046-.084.03-.126.046c-.073.027-.144.056-.214.089l-.036.017a3.24,3.24,0,0,0-1.841,2.643,2.9,2.9,0,0,0,.239,1.558A3.007,3.007,0,0,1,133.569,164.256Z" transform="translate(-133.391 -160.866)"/><path class="h" d="M152.552,201.872a3.683,3.683,0,0,1,1.239,1.44q-.041-.14-.094-.282a3.571,3.571,0,0,0-1.3-1.588,1.941,1.941,0,0,1-.556-.618A1.749,1.749,0,0,0,152.552,201.872Z" transform="translate(-147.516 -191.461)"/><path class="i" d="M134.584,200.375c0-.023,0-.045,0-.067a2.931,2.931,0,0,1,.66-1.893,3.269,3.269,0,0,1,.544-.563l.036-.032c.174-.148.344-.3.512-.454a1.466,1.466,0,0,0,.352-1.867,1.467,1.467,0,0,1-.51,1.437c-.168.154-.338.307-.512.454l-.037.032a3.256,3.256,0,0,0-.544.563,2.93,2.93,0,0,0-.661,1.893c0,.023,0,.045,0,.068a3.21,3.21,0,0,0,.284,1.318A3.208,3.208,0,0,1,134.584,200.375Z" transform="translate(-134.183 -187.384)"/></g><path class="j" d="M99.274,184.884a3.24,3.24,0,0,1,1.841-2.644l.036-.017c.07-.032.141-.061.214-.089.042-.016.083-.032.126-.046s.106-.032.159-.046.107-.03.162-.041.118-.022.177-.031.1-.017.146-.022c.072-.008.145-.011.218-.015.035,0,.069-.007.105-.007h.046c.052,0,.1.005.155.008s.108,0,.162.008.134.018.2.029c.039.007.079.01.118.018a3.247,3.247,0,0,1,2.321,1.85,3.247,3.247,0,0,0-2.479-2.281c-.039-.008-.079-.011-.118-.018-.067-.011-.133-.022-.2-.029s-.108-.006-.162-.008-.1-.008-.155-.008H102.3c-.036,0-.07.006-.105.007-.073,0-.146.007-.218.015-.049.006-.1.015-.146.022s-.119.018-.177.031-.108.027-.162.042-.107.029-.159.046-.084.03-.126.046c-.072.027-.144.056-.213.089l-.036.017a3.24,3.24,0,0,0-1.841,2.644,2.9,2.9,0,0,0,.239,1.558A3.009,3.009,0,0,1,99.274,184.884Z" transform="translate(-98.6 -171.41)"/></g></svg>