<svg xmlns="http://www.w3.org/2000/svg" width="34" height="34" viewBox="0 0 34 34">
    <defs>
        <style>
            .cls-1{fill:#fff}
        </style>
    </defs>
    <g id="Group_435" data-name="Group 435" transform="translate(-13 -7)">
        <path id="Rectangle_258" d="M0 0h10v10H0z" class="cls-1" data-name="Rectangle 258" transform="translate(13 7)"/>
        <path id="Rectangle_259" d="M0 0h10v10H0z" class="cls-1" data-name="Rectangle 259" transform="translate(25 7)"/>
        <path id="Rectangle_260" d="M0 0h10v10H0z" class="cls-1" data-name="Rectangle 260" transform="translate(37 7)"/>
        <path id="Rectangle_261" d="M0 0h10v10H0z" class="cls-1" data-name="Rectangle 261" transform="translate(13 19)"/>
        <path id="Rectangle_262" d="M0 0h10v10H0z" class="cls-1" data-name="Rectangle 262" transform="translate(25 19)"/>
        <path id="Rectangle_263" d="M0 0h10v10H0z" class="cls-1" data-name="Rectangle 263" transform="translate(37 19)"/>
        <path id="Rectangle_264" d="M0 0h10v10H0z" class="cls-1" data-name="Rectangle 264" transform="translate(13 31)"/>
        <path id="Rectangle_265" d="M0 0h10v10H0z" class="cls-1" data-name="Rectangle 265" transform="translate(25 31)"/>
        <path id="Rectangle_266" d="M0 0h10v10H0z" class="cls-1" data-name="Rectangle 266" transform="translate(37 31)"/>
    </g>
</svg>
