<svg xmlns="http://www.w3.org/2000/svg" width="25.094" height="25.094" viewBox="0 0 25.094 25.094"><defs><style>.a{fill:#0e4f6e;}</style></defs><path class="a" d="M29.354,5a2.737,2.737,0,0,0-2.406,4.042l-4.484,4.484a3.625,3.625,0,0,0-4.469,0l-3.5-3.5a1.8,1.8,0,0,0,.259-.921,1.825,1.825,0,1,0-1.825,1.825,1.8,1.8,0,0,0,.921-.259l3.5,3.5a3.627,3.627,0,0,0,0,4.469l-5.778,5.778a2.71,2.71,0,1,0,.57.72l5.853-5.853a3.63,3.63,0,0,0,1.779.739v4.635a2.737,2.737,0,1,0,.912,0V20.023a3.63,3.63,0,0,0,1.779-.739l3.5,3.5a1.8,1.8,0,0,0-.259.922,1.825,1.825,0,1,0,1.825-1.825,1.8,1.8,0,0,0-.921.259l-3.5-3.5a3.626,3.626,0,0,0,0-4.469l4.41-4.41A2.736,2.736,0,1,0,29.354,5Z" transform="translate(-6.998 -4.999)"/></svg>