<svg xmlns="http://www.w3.org/2000/svg" width="30" height="30" viewBox="0 0 30 30"><defs><style>.a{fill:none;}</style></defs><g transform="translate(-0.031)"><circle class="a" cx="15" cy="15" r="15" transform="translate(0.031)"/><g transform="translate(7.587 6.577)"><path d="M35.224,22.548c-2.337-5.029-3.552-6.939-7.371-6.86-1.36.028-1.033-.985-2.07-.6s-.147.947-1.207,1.817c-2.975,2.442-2.7,4.7-1.321,10.085.582,2.268-1.4,2.379-.617,4.577.573,1.6,4.8,2.274,9.25.621s7.267-4.934,6.695-6.537C37.8,23.452,36.209,24.665,35.224,22.548ZM31.4,30.832c-3.979,1.476-7.249.608-7.387.222-.238-.666,1.284-2.886,5.833-4.574s7.087-1.062,7.353-.318C37.36,26.6,35.383,29.356,31.4,30.832Zm-1.279-3.582a14.905,14.905,0,0,0-4.461,2.45,3.145,3.145,0,0,0,3.122.288c1.565-.581,2.527-1.914,2.146-2.977,0-.013-.011-.024-.016-.037Q30.532,27.1,30.126,27.251Z" transform="translate(-22.258 -15)"/></g></g></svg>