<svg xmlns="http://www.w3.org/2000/svg" width="15.264" height="15.263" viewBox="0 0 15.264 15.263"><defs><style>.a{fill:#fc5656;}</style></defs><g transform="translate(0 0)"><path class="a" d="M206.726,29.6a.636.636,0,0,0-.636.636v2.544a.637.637,0,0,1-.636.636h-1.908v-9.54a1.282,1.282,0,0,0-.866-1.209l-.188-.063h2.962a.637.637,0,0,1,.636.636v1.908a.636.636,0,1,0,1.272,0V23.243a1.91,1.91,0,0,0-1.908-1.908h-6.837a.517.517,0,0,0-.068.014c-.031,0-.06-.014-.091-.014a1.273,1.273,0,0,0-1.272,1.272V34.054a1.282,1.282,0,0,0,.866,1.209l3.827,1.276a1.316,1.316,0,0,0,.394.059,1.273,1.273,0,0,0,1.272-1.272v-.636h1.908a1.91,1.91,0,0,0,1.908-1.908V30.239A.636.636,0,0,0,206.726,29.6Z" transform="translate(-197.186 -21.335)"/><path class="a" d="M250.215,41.842,247.671,39.3a.636.636,0,0,0-1.086.45v1.908h-2.544a.636.636,0,1,0,0,1.272h2.544v1.908a.636.636,0,0,0,1.086.45l2.544-2.544A.635.635,0,0,0,250.215,41.842Z" transform="translate(-235.138 -35.932)"/></g></svg>